<?xml version="1.0" standalone="no"?>
<!DOCTYPE svg PUBLIC "-//W3C//DTD SVG 20010904//EN"
 "http://www.w3.org/TR/2001/REC-SVG-20010904/DTD/svg10.dtd">
<svg version="1.0" xmlns="http://www.w3.org/2000/svg"
 width="2048.000000pt" height="2048.000000pt" viewBox="0 0 2048.000000 2048.000000"
 preserveAspectRatio="xMidYMid meet">

<g transform="translate(0.000000,2048.000000) scale(0.100000,-0.100000)"
fill="#000000" stroke="none">
<path d="M14898 13089 c-119 -17 -235 -104 -291 -218 -30 -63 -32 -72 -32
-181 0 -104 3 -120 27 -173 45 -96 99 -152 186 -193 42 -20 88 -41 102 -48 19
-9 29 -28 47 -91 77 -267 254 -567 451 -762 364 -362 837 -542 1362 -519 336
14 458 80 435 233 -10 65 -21 84 -68 118 -38 27 -49 30 -117 30 -41 -1 -122
-9 -180 -19 -245 -42 -542 10 -802 142 -187 95 -326 207 -462 372 -129 157
-239 363 -282 528 l-18 71 22 28 c46 59 83 133 93 189 55 291 -180 536 -473
493z"/>
<path d="M13155 12821 c-154 -33 -253 -78 -373 -169 -140 -105 -239 -265 -287
-462 -46 -194 -28 -376 60 -593 117 -292 267 -479 730 -912 94 -87 212 -200
263 -249 l92 -91 27 33 c14 19 59 72 100 120 40 47 76 96 79 109 7 28 -17 62
-88 128 -98 90 -342 319 -426 400 -150 143 -320 351 -390 475 -86 152 -127
311 -111 426 13 94 18 111 53 183 52 109 134 178 273 232 85 33 260 33 358 0
241 -80 497 -304 613 -536 75 -149 122 -355 122 -534 0 -100 -23 -257 -54
-376 -58 -215 -128 -360 -259 -535 -75 -99 -390 -421 -755 -771 -118 -112
-256 -253 -307 -312 -218 -252 -340 -481 -391 -736 -50 -252 35 -557 205 -735
121 -127 291 -219 461 -252 344 -67 727 75 1035 381 147 147 223 267 341 540
147 340 441 701 769 945 189 141 327 221 530 308 363 155 740 232 1138 232
197 0 198 0 257 -76 80 -102 191 -155 324 -156 276 -1 462 244 391 517 -20 74
-92 176 -158 221 -85 58 -149 76 -257 72 -84 -3 -102 -8 -155 -36 -68 -37
-124 -87 -162 -143 -14 -22 -37 -42 -51 -46 -36 -9 -504 4 -597 17 -353 48
-737 182 -1034 359 -234 139 -520 385 -677 581 -137 170 -240 337 -313 505
-82 189 -131 280 -209 385 -307 411 -781 635 -1167 551z m1495 -1757 c113
-142 404 -394 599 -518 97 -62 294 -166 401 -210 47 -20 96 -42 110 -50 14 -7
42 -19 63 -25 40 -13 48 -28 20 -37 -134 -44 -416 -180 -559 -270 -226 -142
-537 -409 -656 -564 -17 -22 -31 -31 -36 -25 -5 6 -22 64 -37 130 -16 66 -41
156 -56 200 -51 152 -172 400 -195 400 -6 0 -55 -49 -110 -108 -154 -169 -143
-142 -99 -232 62 -130 116 -305 134 -438 16 -112 14 -348 -3 -442 -41 -224
-124 -389 -276 -548 -135 -142 -297 -247 -454 -296 -98 -30 -251 -30 -338 2
-167 61 -287 194 -319 356 -14 75 -7 202 17 281 63 210 257 473 543 737 313
288 696 683 822 848 148 194 253 415 319 672 16 65 30 123 30 130 0 19 19 63
27 63 5 0 28 -25 53 -56z"/>
<path d="M16139 12606 c-60 -17 -151 -78 -188 -124 -104 -134 -124 -295 -53
-445 38 -82 71 -119 143 -163 218 -132 477 -52 586 182 25 53 28 70 28 164 0
98 -2 109 -33 172 -40 81 -120 159 -199 195 -68 31 -209 41 -284 19z"/>
<path d="M4331 12241 c-8 -5 -10 -14 -6 -21 5 -9 4 -11 -4 -6 -9 6 -11 -288
-8 -1306 l3 -1313 23 -84 c58 -224 167 -342 371 -404 60 -19 101 -21 519 -24
402 -4 463 -2 525 13 101 24 181 69 255 143 l64 64 33 -36 c81 -86 154 -131
272 -170 58 -19 89 -22 237 -22 152 0 177 3 238 24 119 40 208 104 264 189 9
12 21 22 28 22 7 0 42 -28 77 -63 66 -65 138 -108 248 -148 59 -22 81 -24 250
-24 167 0 193 2 261 24 94 29 170 80 228 151 24 30 50 56 56 58 7 2 41 -26 76
-60 67 -67 141 -111 249 -150 59 -21 81 -23 230 -22 140 0 177 4 245 23 158
45 281 128 337 228 16 29 36 53 43 53 7 0 37 -30 66 -67 65 -81 192 -170 294
-208 91 -33 275 -65 375 -65 89 0 263 29 356 60 203 68 341 198 450 425 68
141 92 236 105 415 27 371 -72 705 -265 894 -166 162 -401 241 -686 229 -274
-11 -435 -75 -595 -238 -95 -96 -155 -196 -202 -338 -44 -129 -62 -257 -72
-492 -7 -148 -12 -200 -27 -235 -48 -118 -111 -197 -187 -234 -67 -33 -194
-50 -319 -43 -80 4 -109 10 -160 34 -75 36 -139 98 -176 173 l-27 55 -5 618
c-5 598 -6 619 -24 633 -27 19 -378 21 -394 1 -7 -8 -12 -229 -14 -647 -5
-710 -4 -703 -75 -781 -65 -72 -100 -84 -243 -84 -125 0 -125 0 -190 36 -77
42 -128 104 -156 187 -17 52 -19 98 -22 497 -2 249 -8 447 -13 457 -9 16 -28
18 -198 18 -167 0 -190 -2 -204 -18 -14 -15 -16 -75 -20 -502 -2 -365 -6 -495
-16 -525 -7 -22 -32 -59 -55 -82 -58 -57 -128 -77 -255 -71 -124 6 -194 37
-252 111 -76 96 -73 74 -77 542 -3 411 -3 420 -23 438 -19 15 -44 17 -199 17
-130 0 -180 -3 -188 -12 -6 -8 -13 -176 -17 -447 -5 -312 -11 -447 -20 -478
-18 -59 -58 -109 -108 -134 -57 -29 -246 -43 -487 -35 -165 6 -189 9 -236 30
-55 25 -93 70 -116 137 -9 25 -14 351 -18 1286 l-5 1252 -21 28 -21 28 -179 2
c-98 2 -185 -1 -193 -6z m6006 -1596 c173 -56 266 -177 309 -401 20 -105 14
-345 -10 -432 -67 -242 -221 -364 -461 -366 -122 0 -190 18 -267 73 -106 77
-167 202 -194 403 -14 104 -15 138 -5 225 6 55 18 127 26 158 74 282 331 427
602 340z"/>
<path d="M3294 10996 c-19 -14 -19 -39 -24 -1018 -5 -985 -6 -1004 -27 -1071
-36 -119 -106 -200 -208 -243 -53 -22 -226 -30 -338 -15 -63 9 -93 9 -102 1
-15 -13 -46 -199 -48 -300 -2 -72 -1 -75 25 -87 86 -42 463 -42 604 0 197 58
339 176 424 352 100 206 109 330 104 1355 -2 432 -4 831 -4 888 0 96 -2 105
-25 127 -24 25 -27 25 -193 25 -129 0 -173 -3 -188 -14z"/>
<path d="M12435 10630 c-215 -68 -335 -301 -264 -513 58 -174 198 -278 379
-280 109 -1 191 29 267 97 145 132 180 342 84 510 -94 163 -290 242 -466 186z"/>
<path d="M16480 9579 c-269 -29 -545 -130 -780 -284 -147 -97 -351 -301 -449
-449 -113 -170 -203 -378 -261 -604 -10 -38 -17 -45 -72 -73 -271 -137 -324
-478 -106 -686 18 -18 60 -45 93 -60 55 -26 69 -28 180 -28 111 0 124 2 177
28 74 36 141 105 181 186 30 62 32 71 32 181 0 110 -1 118 -33 183 -18 37 -53
88 -78 114 -24 26 -44 52 -44 57 0 25 86 259 122 331 96 190 275 400 439 512
93 64 272 154 359 181 243 75 499 89 732 41 49 -10 63 -10 102 5 63 24 99 74
104 146 6 81 -26 139 -95 174 -78 39 -420 65 -603 45z"/>
<path d="M16223 8711 c-148 -55 -238 -167 -263 -328 -42 -269 192 -505 458
-464 137 21 247 103 307 228 37 77 46 204 20 284 -43 130 -99 198 -211 255
-69 35 -83 38 -167 41 -71 2 -104 -2 -144 -16z"/>
</g>
</svg>
